<svg xmlns="http://www.w3.org/2000/svg" viewBox="0 0 720 500" fill="none">
<title>Beegol — dados e inteligência artificial</title>
<desc>Fluxos de dados convergem para um núcleo de inteligência, com rede de nós conectados e órbitas geométricas. Vetor com fundo transparente.</desc>
<polyline points="30.00,120.00 165.00,120.00 215.00,204.00 306.00,204.00" stroke="#4779FF" stroke-opacity="0.2" stroke-width="1.2" stroke-linecap="round" stroke-linejoin="round"/>
<circle cx="30" cy="120" r="2.1" fill="#5E9EFF" fill-opacity="0.48"/>
<circle cx="165" cy="120" r="2.5" fill="#79CFFF" fill-opacity="0.7"/>
<polyline points="54.00,113.00 61.00,113.00" stroke="#76A8FF" stroke-opacity="0.3" stroke-width="2" stroke-linecap="round" stroke-linejoin="round"/>
<polyline points="71.00,113.00 78.00,113.00" stroke="#76A8FF" stroke-opacity="0.3" stroke-width="2" stroke-linecap="round" stroke-linejoin="round"/>
<polyline points="88.00,113.00 95.00,113.00" stroke="#76A8FF" stroke-opacity="0.3" stroke-width="2" stroke-linecap="round" stroke-linejoin="round"/>
<polyline points="53.00,152.00 173.00,152.00 223.00,218.00 306.00,218.00" stroke="#4779FF" stroke-opacity="0.23500000000000001" stroke-width="1.2" stroke-linecap="round" stroke-linejoin="round"/>
<circle cx="53" cy="152" r="2.1" fill="#5E9EFF" fill-opacity="0.48"/>
<circle cx="173" cy="152" r="2.5" fill="#79CFFF" fill-opacity="0.7"/>
<polyline points="77.00,145.00 84.00,145.00" stroke="#76A8FF" stroke-opacity="0.3" stroke-width="2" stroke-linecap="round" stroke-linejoin="round"/>
<polyline points="94.00,145.00 101.00,145.00" stroke="#76A8FF" stroke-opacity="0.3" stroke-width="2" stroke-linecap="round" stroke-linejoin="round"/>
<polyline points="111.00,145.00 118.00,145.00" stroke="#76A8FF" stroke-opacity="0.3" stroke-width="2" stroke-linecap="round" stroke-linejoin="round"/>
<polyline points="76.00,184.00 181.00,184.00 231.00,232.00 306.00,232.00" stroke="#4779FF" stroke-opacity="0.27" stroke-width="1.2" stroke-linecap="round" stroke-linejoin="round"/>
<circle cx="76" cy="184" r="2.1" fill="#5E9EFF" fill-opacity="0.48"/>
<circle cx="181" cy="184" r="2.5" fill="#79CFFF" fill-opacity="0.7"/>
<polyline points="100.00,177.00 107.00,177.00" stroke="#76A8FF" stroke-opacity="0.3" stroke-width="2" stroke-linecap="round" stroke-linejoin="round"/>
<polyline points="117.00,177.00 124.00,177.00" stroke="#76A8FF" stroke-opacity="0.3" stroke-width="2" stroke-linecap="round" stroke-linejoin="round"/>
<polyline points="134.00,177.00 141.00,177.00" stroke="#76A8FF" stroke-opacity="0.3" stroke-width="2" stroke-linecap="round" stroke-linejoin="round"/>
<polyline points="30.00,216.00 189.00,216.00 239.00,246.00 306.00,246.00" stroke="#4779FF" stroke-opacity="0.30500000000000005" stroke-width="1.2" stroke-linecap="round" stroke-linejoin="round"/>
<circle cx="30" cy="216" r="2.1" fill="#5E9EFF" fill-opacity="0.48"/>
<circle cx="189" cy="216" r="2.5" fill="#79CFFF" fill-opacity="0.7"/>
<polyline points="54.00,209.00 61.00,209.00" stroke="#76A8FF" stroke-opacity="0.3" stroke-width="2" stroke-linecap="round" stroke-linejoin="round"/>
<polyline points="71.00,209.00 78.00,209.00" stroke="#76A8FF" stroke-opacity="0.3" stroke-width="2" stroke-linecap="round" stroke-linejoin="round"/>
<polyline points="88.00,209.00 95.00,209.00" stroke="#76A8FF" stroke-opacity="0.3" stroke-width="2" stroke-linecap="round" stroke-linejoin="round"/>
<polyline points="53.00,248.00 197.00,248.00 247.00,260.00 306.00,260.00" stroke="#4779FF" stroke-opacity="0.34" stroke-width="1.2" stroke-linecap="round" stroke-linejoin="round"/>
<circle cx="53" cy="248" r="2.1" fill="#5E9EFF" fill-opacity="0.48"/>
<circle cx="197" cy="248" r="2.5" fill="#79CFFF" fill-opacity="0.7"/>
<polyline points="77.00,241.00 84.00,241.00" stroke="#76A8FF" stroke-opacity="0.3" stroke-width="2" stroke-linecap="round" stroke-linejoin="round"/>
<polyline points="94.00,241.00 101.00,241.00" stroke="#76A8FF" stroke-opacity="0.3" stroke-width="2" stroke-linecap="round" stroke-linejoin="round"/>
<polyline points="111.00,241.00 118.00,241.00" stroke="#76A8FF" stroke-opacity="0.3" stroke-width="2" stroke-linecap="round" stroke-linejoin="round"/>
<polyline points="76.00,280.00 205.00,280.00 255.00,274.00 306.00,274.00" stroke="#4779FF" stroke-opacity="0.375" stroke-width="1.2" stroke-linecap="round" stroke-linejoin="round"/>
<circle cx="76" cy="280" r="2.1" fill="#5E9EFF" fill-opacity="0.48"/>
<circle cx="205" cy="280" r="2.5" fill="#79CFFF" fill-opacity="0.7"/>
<polyline points="100.00,273.00 107.00,273.00" stroke="#76A8FF" stroke-opacity="0.3" stroke-width="2" stroke-linecap="round" stroke-linejoin="round"/>
<polyline points="117.00,273.00 124.00,273.00" stroke="#76A8FF" stroke-opacity="0.3" stroke-width="2" stroke-linecap="round" stroke-linejoin="round"/>
<polyline points="134.00,273.00 141.00,273.00" stroke="#76A8FF" stroke-opacity="0.3" stroke-width="2" stroke-linecap="round" stroke-linejoin="round"/>
<polyline points="30.00,312.00 213.00,312.00 263.00,288.00 306.00,288.00" stroke="#4779FF" stroke-opacity="0.41000000000000003" stroke-width="1.2" stroke-linecap="round" stroke-linejoin="round"/>
<circle cx="30" cy="312" r="2.1" fill="#5E9EFF" fill-opacity="0.48"/>
<circle cx="213" cy="312" r="2.5" fill="#79CFFF" fill-opacity="0.7"/>
<polyline points="54.00,305.00 61.00,305.00" stroke="#76A8FF" stroke-opacity="0.3" stroke-width="2" stroke-linecap="round" stroke-linejoin="round"/>
<polyline points="71.00,305.00 78.00,305.00" stroke="#76A8FF" stroke-opacity="0.3" stroke-width="2" stroke-linecap="round" stroke-linejoin="round"/>
<polyline points="88.00,305.00 95.00,305.00" stroke="#76A8FF" stroke-opacity="0.3" stroke-width="2" stroke-linecap="round" stroke-linejoin="round"/>
<polyline points="464.81,295.50 386.00,341.00 307.19,295.50 307.19,204.50 386.00,159.00 464.81,204.50 464.81,295.50" stroke="#578AFF" stroke-opacity="0.65" stroke-width="1.6" stroke-linecap="round" stroke-linejoin="round"/>
<polyline points="446.62,285.00 386.00,320.00 325.38,285.00 325.38,215.00 386.00,180.00 446.62,215.00 446.62,285.00" stroke="#70BBFF" stroke-opacity="0.26" stroke-width="1" stroke-linecap="round" stroke-linejoin="round"/>
<polyline points="477.80,303.00 386.00,356.00 294.20,303.00 294.20,197.00 386.00,144.00 477.80,197.00 477.80,303.00" stroke="#4779FF" stroke-opacity="0.14" stroke-width="1" stroke-linecap="round" stroke-linejoin="round"/>
<polyline points="354.00,225.00 388.00,207.00" stroke="#78BFFF" stroke-opacity="0.52" stroke-width="1.2" stroke-linecap="round" stroke-linejoin="round"/>
<polyline points="354.00,225.00 346.00,267.00" stroke="#78BFFF" stroke-opacity="0.52" stroke-width="1.2" stroke-linecap="round" stroke-linejoin="round"/>
<polyline points="354.00,225.00 386.00,250.00" stroke="#78BFFF" stroke-opacity="0.52" stroke-width="1.2" stroke-linecap="round" stroke-linejoin="round"/>
<polyline points="388.00,207.00 419.00,230.00" stroke="#78BFFF" stroke-opacity="0.52" stroke-width="1.2" stroke-linecap="round" stroke-linejoin="round"/>
<polyline points="388.00,207.00 386.00,250.00" stroke="#78BFFF" stroke-opacity="0.52" stroke-width="1.2" stroke-linecap="round" stroke-linejoin="round"/>
<polyline points="419.00,230.00 386.00,250.00" stroke="#78BFFF" stroke-opacity="0.52" stroke-width="1.2" stroke-linecap="round" stroke-linejoin="round"/>
<polyline points="419.00,230.00 421.00,273.00" stroke="#78BFFF" stroke-opacity="0.52" stroke-width="1.2" stroke-linecap="round" stroke-linejoin="round"/>
<polyline points="346.00,267.00 386.00,250.00" stroke="#78BFFF" stroke-opacity="0.52" stroke-width="1.2" stroke-linecap="round" stroke-linejoin="round"/>
<polyline points="346.00,267.00 383.00,295.00" stroke="#78BFFF" stroke-opacity="0.52" stroke-width="1.2" stroke-linecap="round" stroke-linejoin="round"/>
<polyline points="386.00,250.00 421.00,273.00" stroke="#78BFFF" stroke-opacity="0.52" stroke-width="1.2" stroke-linecap="round" stroke-linejoin="round"/>
<polyline points="386.00,250.00 383.00,295.00" stroke="#78BFFF" stroke-opacity="0.52" stroke-width="1.2" stroke-linecap="round" stroke-linejoin="round"/>
<polyline points="421.00,273.00 383.00,295.00" stroke="#78BFFF" stroke-opacity="0.52" stroke-width="1.2" stroke-linecap="round" stroke-linejoin="round"/>
<circle cx="354" cy="225" r="5" fill="#72C9FF" fill-opacity="0.1"/>
<circle cx="354" cy="225" r="2.6" fill="#95DEFF" fill-opacity="0.95"/>
<circle cx="388" cy="207" r="5" fill="#72C9FF" fill-opacity="0.1"/>
<circle cx="388" cy="207" r="2.6" fill="#95DEFF" fill-opacity="0.95"/>
<circle cx="419" cy="230" r="5" fill="#72C9FF" fill-opacity="0.1"/>
<circle cx="419" cy="230" r="2.6" fill="#95DEFF" fill-opacity="0.95"/>
<circle cx="346" cy="267" r="5" fill="#72C9FF" fill-opacity="0.1"/>
<circle cx="346" cy="267" r="2.6" fill="#95DEFF" fill-opacity="0.95"/>
<circle cx="386" cy="250" r="9" fill="#72C9FF" fill-opacity="0.1"/>
<circle cx="386" cy="250" r="4.2" fill="#95DEFF" fill-opacity="0.95"/>
<circle cx="421" cy="273" r="5" fill="#72C9FF" fill-opacity="0.1"/>
<circle cx="421" cy="273" r="2.6" fill="#95DEFF" fill-opacity="0.95"/>
<circle cx="383" cy="295" r="5" fill="#72C9FF" fill-opacity="0.1"/>
<circle cx="383" cy="295" r="2.6" fill="#95DEFF" fill-opacity="0.95"/>
<circle cx="464.8083117443839" cy="295.5" r="3" fill="#7EC9FF" fill-opacity="0.9"/>
<circle cx="386.0" cy="341.0" r="3" fill="#7EC9FF" fill-opacity="0.9"/>
<circle cx="307.1916882556161" cy="295.5" r="3" fill="#7EC9FF" fill-opacity="0.9"/>
<circle cx="307.1916882556161" cy="204.50000000000003" r="3" fill="#7EC9FF" fill-opacity="0.9"/>
<circle cx="386.0" cy="159.0" r="3" fill="#7EC9FF" fill-opacity="0.9"/>
<circle cx="464.8083117443839" cy="204.50000000000003" r="3" fill="#7EC9FF" fill-opacity="0.9"/>
<polyline points="251.08,226.21 251.99,221.52 253.07,216.86 254.31,212.24 255.71,207.66 257.26,203.14 258.98,198.68 260.84,194.28 262.87,189.94 265.04,185.68 267.35,181.50 269.82,177.40 272.42,173.39 275.16,169.47 278.04,165.65 281.05,161.94 284.19,158.33 287.45,154.83 290.83,151.45 294.33,148.19 297.94,145.05 301.65,142.04 305.47,139.16 309.39,136.42 313.40,133.82 317.50,131.35 321.68,129.04 325.94,126.87 330.28,124.84 334.68,122.98 339.14,121.26 343.66,119.71 348.24,118.31 352.86,117.07 357.52,115.99 362.21,115.08 366.93,114.33 371.68,113.75" stroke="#5C93FF" stroke-opacity="0.27" stroke-width="1" stroke-linecap="round" stroke-linejoin="round"/>
<circle cx="371.6796005323315" cy="113.75050033454656" r="2.5" fill="#7EC9FF" fill-opacity="0.8"/>
<polyline points="423.76,118.31 428.34,119.71 432.86,121.26 437.32,122.98 441.72,124.84 446.06,126.87 450.32,129.04 454.50,131.35 458.60,133.82 462.61,136.42 466.53,139.16 470.35,142.04 474.06,145.05 477.67,148.19 481.17,151.45 484.55,154.83 487.81,158.33 490.95,161.94 493.96,165.65 496.84,169.47 499.58,173.39 502.18,177.40 504.65,181.50 506.96,185.68 509.13,189.94 511.16,194.28 513.02,198.68 514.74,203.14 516.29,207.66 517.69,212.24 518.93,216.86 520.01,221.52 520.92,226.21 521.67,230.93 522.25,235.68 522.67,240.44 522.92,245.22 523.00,250.00 522.92,254.78" stroke="#5C93FF" stroke-opacity="0.27" stroke-width="1" stroke-linecap="round" stroke-linejoin="round"/>
<circle cx="522.9165433016161" cy="254.78123104824263" r="2.5" fill="#7EC9FF" fill-opacity="0.8"/>
<polyline points="502.03,287.70 500.64,291.73 499.12,295.70 497.45,299.62 495.65,303.48 493.72,307.28 491.66,311.00 489.46,314.65 487.14,318.22 484.70,321.71 482.14,325.11 479.46,328.42 476.66,331.63 473.76,334.75 470.75,337.76 467.63,340.66 464.42,343.46 461.11,346.14 457.71,348.70 454.22,351.14 450.65,353.46 447.00,355.66 443.28,357.72 439.48,359.65 435.62,361.45 431.70,363.12 427.73,364.64 423.70,366.03 419.63,367.27 415.51,368.38 411.37,369.33 407.19,370.15 402.98,370.81 398.75,371.33" stroke="#5C93FF" stroke-opacity="0.27" stroke-width="1" stroke-linecap="round" stroke-linejoin="round"/>
<circle cx="398.75247251865375" cy="371.33167123492933" r="2.5" fill="#7EC9FF" fill-opacity="0.8"/>
<polyline points="464.81,204.50 483.00,173.00 511.00,173.00" stroke="#6BA9FF" stroke-opacity="0.45" stroke-width="1.3" stroke-linecap="round" stroke-linejoin="round"/>
<polyline points="464.81,295.50 489.00,295.00 515.00,327.00" stroke="#6BA9FF" stroke-opacity="0.4" stroke-width="1.3" stroke-linecap="round" stroke-linejoin="round"/>
<polyline points="511.00,173.00 558.00,130.00" stroke="#5D8EFF" stroke-opacity="0.22" stroke-width="1" stroke-linecap="round" stroke-linejoin="round"/>
<polyline points="511.00,173.00 614.00,165.00" stroke="#5D8EFF" stroke-opacity="0.22" stroke-width="1" stroke-linecap="round" stroke-linejoin="round"/>
<polyline points="511.00,173.00 548.00,240.00" stroke="#5D8EFF" stroke-opacity="0.22" stroke-width="1" stroke-linecap="round" stroke-linejoin="round"/>
<polyline points="558.00,130.00 614.00,165.00" stroke="#5D8EFF" stroke-opacity="0.22" stroke-width="1" stroke-linecap="round" stroke-linejoin="round"/>
<polyline points="614.00,165.00 660.00,118.00" stroke="#5D8EFF" stroke-opacity="0.22" stroke-width="1" stroke-linecap="round" stroke-linejoin="round"/>
<polyline points="614.00,165.00 604.00,223.00" stroke="#5D8EFF" stroke-opacity="0.22" stroke-width="1" stroke-linecap="round" stroke-linejoin="round"/>
<polyline points="548.00,240.00 604.00,223.00" stroke="#5D8EFF" stroke-opacity="0.22" stroke-width="1" stroke-linecap="round" stroke-linejoin="round"/>
<polyline points="548.00,240.00 515.00,327.00" stroke="#5D8EFF" stroke-opacity="0.22" stroke-width="1" stroke-linecap="round" stroke-linejoin="round"/>
<polyline points="604.00,223.00 654.00,266.00" stroke="#5D8EFF" stroke-opacity="0.22" stroke-width="1" stroke-linecap="round" stroke-linejoin="round"/>
<polyline points="604.00,223.00 638.00,335.00" stroke="#5D8EFF" stroke-opacity="0.22" stroke-width="1" stroke-linecap="round" stroke-linejoin="round"/>
<polyline points="654.00,266.00 638.00,335.00" stroke="#5D8EFF" stroke-opacity="0.22" stroke-width="1" stroke-linecap="round" stroke-linejoin="round"/>
<polyline points="515.00,327.00 579.00,359.00" stroke="#5D8EFF" stroke-opacity="0.22" stroke-width="1" stroke-linecap="round" stroke-linejoin="round"/>
<polyline points="579.00,359.00 638.00,335.00" stroke="#5D8EFF" stroke-opacity="0.22" stroke-width="1" stroke-linecap="round" stroke-linejoin="round"/>
<polyline points="638.00,335.00 675.00,385.00" stroke="#5D8EFF" stroke-opacity="0.22" stroke-width="1" stroke-linecap="round" stroke-linejoin="round"/>
<circle cx="511" cy="173" r="3.2" fill="#72C9FF" fill-opacity="0.12"/>
<circle cx="511" cy="173" r="1.8" fill="#89CFFF" fill-opacity="0.8"/>
<circle cx="558" cy="130" r="3.2" fill="#72C9FF" fill-opacity="0.12"/>
<circle cx="558" cy="130" r="1.8" fill="#89CFFF" fill-opacity="0.8"/>
<circle cx="614" cy="165" r="6" fill="#72C9FF" fill-opacity="0.12"/>
<circle cx="614" cy="165" r="3" fill="#89CFFF" fill-opacity="0.8"/>
<circle cx="660" cy="118" r="3.2" fill="#72C9FF" fill-opacity="0.12"/>
<circle cx="660" cy="118" r="1.8" fill="#89CFFF" fill-opacity="0.8"/>
<circle cx="548" cy="240" r="3.2" fill="#72C9FF" fill-opacity="0.12"/>
<circle cx="548" cy="240" r="1.8" fill="#89CFFF" fill-opacity="0.8"/>
<circle cx="604" cy="223" r="6" fill="#72C9FF" fill-opacity="0.12"/>
<circle cx="604" cy="223" r="3" fill="#89CFFF" fill-opacity="0.8"/>
<circle cx="654" cy="266" r="3.2" fill="#72C9FF" fill-opacity="0.12"/>
<circle cx="654" cy="266" r="1.8" fill="#89CFFF" fill-opacity="0.8"/>
<circle cx="515" cy="327" r="3.2" fill="#72C9FF" fill-opacity="0.12"/>
<circle cx="515" cy="327" r="1.8" fill="#89CFFF" fill-opacity="0.8"/>
<circle cx="579" cy="359" r="3.2" fill="#72C9FF" fill-opacity="0.12"/>
<circle cx="579" cy="359" r="1.8" fill="#89CFFF" fill-opacity="0.8"/>
<circle cx="638" cy="335" r="6" fill="#72C9FF" fill-opacity="0.12"/>
<circle cx="638" cy="335" r="3" fill="#89CFFF" fill-opacity="0.8"/>
<circle cx="675" cy="385" r="3.2" fill="#72C9FF" fill-opacity="0.12"/>
<circle cx="675" cy="385" r="1.8" fill="#89CFFF" fill-opacity="0.8"/>
<circle cx="265" cy="92" r="1.25" fill="#729EFF" fill-opacity="0.16"/>
<circle cx="275" cy="92" r="1.25" fill="#729EFF" fill-opacity="0.24"/>
<circle cx="285" cy="92" r="1.25" fill="#729EFF" fill-opacity="0.32"/>
<circle cx="295" cy="92" r="1.25" fill="#729EFF" fill-opacity="0.4"/>
<circle cx="305" cy="92" r="1.25" fill="#729EFF" fill-opacity="0.16"/>
<circle cx="265" cy="102" r="1.25" fill="#729EFF" fill-opacity="0.24"/>
<circle cx="275" cy="102" r="1.25" fill="#729EFF" fill-opacity="0.32"/>
<circle cx="285" cy="102" r="1.25" fill="#729EFF" fill-opacity="0.4"/>
<circle cx="295" cy="102" r="1.25" fill="#729EFF" fill-opacity="0.16"/>
<circle cx="305" cy="102" r="1.25" fill="#729EFF" fill-opacity="0.24"/>
<circle cx="265" cy="112" r="1.25" fill="#729EFF" fill-opacity="0.32"/>
<circle cx="275" cy="112" r="1.25" fill="#729EFF" fill-opacity="0.4"/>
<circle cx="285" cy="112" r="1.25" fill="#729EFF" fill-opacity="0.16"/>
<circle cx="295" cy="112" r="1.25" fill="#729EFF" fill-opacity="0.24"/>
<circle cx="305" cy="112" r="1.25" fill="#729EFF" fill-opacity="0.32"/>
<circle cx="265" cy="122" r="1.25" fill="#729EFF" fill-opacity="0.4"/>
<circle cx="275" cy="122" r="1.25" fill="#729EFF" fill-opacity="0.16"/>
<circle cx="285" cy="122" r="1.25" fill="#729EFF" fill-opacity="0.24"/>
<circle cx="295" cy="122" r="1.25" fill="#729EFF" fill-opacity="0.32"/>
<circle cx="305" cy="122" r="1.25" fill="#729EFF" fill-opacity="0.4"/>
<polyline points="525.00,413.00 525.00,405.00" stroke="#6AABFF" stroke-opacity="0.34" stroke-width="3" stroke-linecap="round" stroke-linejoin="round"/>
<polyline points="534.00,413.00 534.00,398.00" stroke="#6AABFF" stroke-opacity="0.34" stroke-width="3" stroke-linecap="round" stroke-linejoin="round"/>
<polyline points="543.00,413.00 543.00,402.00" stroke="#6AABFF" stroke-opacity="0.34" stroke-width="3" stroke-linecap="round" stroke-linejoin="round"/>
<polyline points="552.00,413.00 552.00,389.00" stroke="#6AABFF" stroke-opacity="0.34" stroke-width="3" stroke-linecap="round" stroke-linejoin="round"/>
<polyline points="561.00,413.00 561.00,394.00" stroke="#6AABFF" stroke-opacity="0.34" stroke-width="3" stroke-linecap="round" stroke-linejoin="round"/>
<polyline points="570.00,413.00 570.00,381.00" stroke="#6AABFF" stroke-opacity="0.34" stroke-width="3" stroke-linecap="round" stroke-linejoin="round"/>
<polyline points="216.00,385.00 224.00,385.00" stroke="#7DAAFF" stroke-opacity="0.32" stroke-width="1" stroke-linecap="round" stroke-linejoin="round"/>
<polyline points="220.00,381.00 220.00,389.00" stroke="#7DAAFF" stroke-opacity="0.32" stroke-width="1" stroke-linecap="round" stroke-linejoin="round"/>
<polyline points="465.00,91.00 473.00,91.00" stroke="#7DAAFF" stroke-opacity="0.32" stroke-width="1" stroke-linecap="round" stroke-linejoin="round"/>
<polyline points="469.00,87.00 469.00,95.00" stroke="#7DAAFF" stroke-opacity="0.32" stroke-width="1" stroke-linecap="round" stroke-linejoin="round"/>
<polyline points="689.00,221.00 697.00,221.00" stroke="#7DAAFF" stroke-opacity="0.32" stroke-width="1" stroke-linecap="round" stroke-linejoin="round"/>
<polyline points="693.00,217.00 693.00,225.00" stroke="#7DAAFF" stroke-opacity="0.32" stroke-width="1" stroke-linecap="round" stroke-linejoin="round"/>
</svg>